<svg width="199" height="43" viewBox="0 0 199 43" fill="none" xmlns="http://www.w3.org/2000/svg">
<path d="M57.084 34.064C56.532 34.472 55.848 34.784 55.032 35C54.24 35.192 53.4 35.288 52.512 35.288C50.208 35.288 48.42 34.7 47.148 33.524C45.9 32.348 45.276 30.62 45.276 28.34V20.384H42.288V16.064H45.276V11.348H50.892V16.064H55.716V20.384H50.892V28.268C50.892 29.084 51.096 29.72 51.504 30.176C51.936 30.608 52.536 30.824 53.304 30.824C54.192 30.824 54.948 30.584 55.572 30.104L57.084 34.064ZM65.6005 18.188C66.2725 17.252 67.1725 16.544 68.3005 16.064C69.4525 15.584 70.7725 15.344 72.2605 15.344V20.528C71.6365 20.48 71.2165 20.456 71.0005 20.456C69.3925 20.456 68.1325 20.912 67.2205 21.824C66.3085 22.712 65.8525 24.056 65.8525 25.856V35H60.2365V15.632H65.6005V18.188ZM83.3063 15.344C86.3063 15.344 88.6103 16.064 90.2183 17.504C91.8263 18.92 92.6303 21.068 92.6303 23.948V35H87.3743V32.588C86.3183 34.388 84.3503 35.288 81.4703 35.288C79.9823 35.288 78.6863 35.036 77.5823 34.532C76.5023 34.028 75.6743 33.332 75.0983 32.444C74.5223 31.556 74.2343 30.548 74.2343 29.42C74.2343 27.62 74.9063 26.204 76.2503 25.172C77.6183 24.14 79.7183 23.624 82.5503 23.624H87.0143C87.0143 22.4 86.6423 21.464 85.8983 20.816C85.1543 20.144 84.0383 19.808 82.5503 19.808C81.5183 19.808 80.4983 19.976 79.4903 20.312C78.5063 20.624 77.6663 21.056 76.9703 21.608L74.9543 17.684C76.0103 16.94 77.2703 16.364 78.7343 15.956C80.2223 15.548 81.7463 15.344 83.3063 15.344ZM82.8743 31.508C83.8343 31.508 84.6863 31.292 85.4303 30.86C86.1743 30.404 86.7023 29.744 87.0143 28.88V26.9H83.1623C80.8583 26.9 79.7063 27.656 79.7063 29.168C79.7063 29.888 79.9823 30.464 80.5343 30.896C81.1103 31.304 81.8903 31.508 82.8743 31.508ZM107.284 35.288C105.22 35.288 103.36 34.868 101.704 34.028C100.072 33.164 98.788 31.976 97.852 30.464C96.94 28.952 96.484 27.236 96.484 25.316C96.484 23.396 96.94 21.68 97.852 20.168C98.788 18.656 100.072 17.48 101.704 16.64C103.36 15.776 105.22 15.344 107.284 15.344C109.324 15.344 111.1 15.776 112.612 16.64C114.148 17.48 115.264 18.692 115.96 20.276L111.604 22.616C110.596 20.84 109.144 19.952 107.248 19.952C105.784 19.952 104.572 20.432 103.612 21.392C102.652 22.352 102.172 23.66 102.172 25.316C102.172 26.972 102.652 28.28 103.612 29.24C104.572 30.2 105.784 30.68 107.248 30.68C109.168 30.68 110.62 29.792 111.604 28.016L115.96 30.392C115.264 31.928 114.148 33.128 112.612 33.992C111.1 34.856 109.324 35.288 107.284 35.288ZM127.369 27.404L124.669 30.068V35H119.053V8.288H124.669V23.408L132.877 15.632H139.573L131.509 23.84L140.293 35H133.489L127.369 27.404ZM142.678 15.632H148.294V35H142.678V15.632ZM145.486 12.932C144.454 12.932 143.614 12.632 142.966 12.032C142.318 11.432 141.994 10.688 141.994 9.8C141.994 8.912 142.318 8.168 142.966 7.568C143.614 6.968 144.454 6.668 145.486 6.668C146.518 6.668 147.358 6.956 148.006 7.532C148.654 8.108 148.978 8.828 148.978 9.692C148.978 10.628 148.654 11.408 148.006 12.032C147.358 12.632 146.518 12.932 145.486 12.932ZM159.662 16.064H164.63V20.384H159.806V35H154.19V20.384H151.202V16.064H154.19V15.2C154.19 12.992 154.838 11.24 156.134 9.944C157.454 8.648 159.302 8 161.678 8C162.518 8 163.31 8.096 164.054 8.288C164.822 8.456 165.458 8.708 165.962 9.044L164.486 13.112C163.838 12.656 163.082 12.428 162.218 12.428C160.514 12.428 159.662 13.364 159.662 15.236V16.064ZM187.004 15.632L178.256 36.188C177.368 38.42 176.264 39.992 174.944 40.904C173.648 41.816 172.076 42.272 170.228 42.272C169.22 42.272 168.224 42.116 167.24 41.804C166.256 41.492 165.452 41.06 164.827 40.508L166.88 36.512C167.312 36.896 167.804 37.196 168.356 37.412C168.932 37.628 169.496 37.736 170.048 37.736C170.816 37.736 171.44 37.544 171.92 37.16C172.4 36.8 172.832 36.188 173.216 35.324L173.288 35.144L164.899 15.632H170.696L176.132 28.772L181.604 15.632H187.004Z" fill="black"/>
<rect y="13" width="27" height="6" rx="3" fill="#FFCC01"/>
<rect y="29" width="16" height="6" rx="3" fill="#FF3D57"/>
<rect y="21" width="37" height="6" rx="3" fill="#00D647"/>
</svg>
